<?xml version="1.0" encoding="UTF-8"?>
<!-- Generator: Blender, SVG Export for Grease Pencil - v2.0 -->
<!DOCTYPE svg PUBLIC "-//W3C//DTD SVG 1.1//EN" "http://www.w3.org/Graphics/SVG/1.1/DTD/svg11.dtd">
<svg version="1.0" x="0px" y="0px" xmlns="http://www.w3.org/2000/svg" width="261.507690px" height="247.575684px" viewBox="0 0 261.507690 247.575684">
	<g id="blender_frame_1">
		<g id="blender_object_Suzanne">
			<!--Layer: Fills-->
			<g id="Fills">
				<polyline points="81.019775,138.914856 78.217529,139.511414 76.110718,139.861694 73.301636,140.295288 70.302979,140.570984 67.003418,140.737427 63.643921,140.668640 60.245972,140.336304 56.952759,139.674255 53.676025,138.779541 50.426270,137.726746 47.159058,136.583435 43.874023,135.336609 40.570679,134.139343 37.394165,132.952087 34.558716,131.498047 32.010132,129.820679 29.681763,127.951843 27.541138,125.856018 25.386108,123.667786 23.092285,121.462891 20.839600,119.262878 19.126221,116.944641 17.557739,114.428711 16.282227,111.637085 15.198364,108.578979 14.204224,105.250244 13.209351,101.541809 12.327515,97.546570 12.036255,93.366272 12.461426,89.407898 13.239014,85.834534 14.254883,82.670105 15.429199,79.986938 16.648193,77.729797 17.979614,75.763306 19.491821,74.095276 21.353638,72.764099 23.643555,71.672668 26.427734,70.828735 29.748291,70.319275 33.411011,70.119934 37.299194,70.756470 41.120605,71.835205 44.684814,73.434448 47.525269,75.371338 49.703735,77.126221 51.402344,78.364319 52.901978,78.858643 54.280762,78.758240 55.539062,78.076660 56.821045,76.905457 58.116577,75.091431 59.348022,72.666748 60.349487,69.631653 61.285522,66.396301 62.410278,63.056335 63.766724,59.814575 65.465332,56.676208 67.472778,53.464661 69.810059,50.269043 72.145264,47.114746 74.532959,44.023376 76.983765,41.084290 79.419922,38.341370 81.786133,35.837036 84.082520,33.596558 86.265015,31.661194 88.389038,29.962341 90.477295,28.395752 92.650635,26.850342 94.941162,25.349609 97.381104,23.930054 99.947754,22.580261 102.619019,21.327393 105.351196,20.110229 108.121948,18.968750 110.921143,17.852295 113.769531,16.785034 116.677734,15.778931 119.655762,14.858704 122.703125,14.036987 125.819092,13.326355 129.013672,12.763977 132.254639,12.300842 135.552368,11.961365 138.884399,11.759277 142.250122,11.757507 145.607422,11.894897 148.955688,12.196411 152.315918,12.685303 155.688110,13.335693 159.082886,14.108704 162.519775,15.077820 165.936279,16.221375 169.299927,17.603638 172.528687,19.154114 175.623291,20.847351 178.574219,22.696289 181.475708,24.669067 184.327271,26.790222 187.129272,29.059326 189.829468,31.541870 192.459473,34.210083 194.979126,37.016907 197.369507,39.901428 199.601074,42.841370 201.512451,45.762695 203.071045,48.261597 204.388672,50.442566 205.525391,52.400757 206.511963,54.146912 207.379395,55.691650 208.147583,57.058289 208.847290,58.257324 209.518555,59.310242 210.191406,60.251831 210.905640,61.103516 211.712891,61.848877 212.621948,62.511841 213.684937,63.002197 214.881714,63.321838 216.285767,63.281067 217.898315,62.794312 219.707397,61.936707 221.662720,60.700684 223.827637,59.436646 226.281738,58.138367 229.040283,57.000488 231.989502,56.141968 234.916260,55.664612 237.690796,55.577759 240.262817,55.933167 242.553345,56.736206 244.533325,58.000549 246.144165,59.730103 247.477661,61.844177 248.475830,64.310730 249.230225,67.037415 249.703003,69.979004 249.907471,72.989502 249.804199,76.060730 249.364990,79.159851 248.551147,82.230591 247.484375,85.118225 246.232178,87.889893 244.813843,90.544373 243.289795,93.016174 241.657593,95.414490 239.936890,97.725464 238.088135,99.941040 236.180542,102.042603 234.302124,104.094604 232.433228,106.098877 230.533813,108.059021 228.533813,109.981934 226.432739,111.879822 224.178955,113.818359 221.834351,115.670532 219.358521,117.428223 216.781128,119.088562 214.041992,120.621033 211.169678,122.059082 208.214966,123.348999 205.319214,124.464294 202.503784,125.329285 199.820435,125.913879 197.207397,126.296875 194.684448,126.524536 192.250366,126.669922 189.925293,126.804382 187.667358,126.993164 185.414795,127.303711 183.146851,127.750610 180.811035,128.425293 178.396484,129.353638 175.922241,130.632446 173.419312,132.247009 171.044556,134.059021 168.777710,136.082947 166.744019,138.256897 164.872925,140.514099 163.227417,142.823181 161.766968,145.163513 160.523193,147.518860 159.611206,149.839966 159.031494,152.126038 158.700439,154.409912 158.607422,156.729126 158.711182,159.062988 159.000977,161.424561 159.517700,163.833374 160.178467,166.273438 161.075195,168.807556 162.072998,171.437805 163.119629,174.194153 164.132812,177.048767 164.987549,180.089172 165.673462,183.353088 166.305664,186.741943 166.904053,190.289612 167.418457,193.916748 167.828735,197.601501 168.095825,201.239502 168.128052,204.769714 167.906372,208.122803 167.430542,211.323975 166.701172,214.325745 165.758301,217.160095 164.571777,219.819519 163.181885,222.299438 161.557617,224.579956 159.718994,226.646729 157.665283,228.524414 155.375366,230.179260 152.879395,231.595276 150.176147,232.784546 147.347656,233.723755 144.383545,234.365112 141.323364,234.775879 138.260010,235.004150 135.233643,235.129639 132.256104,235.101807 129.305664,234.947327 126.424927,234.648254 123.549561,234.334961 120.723022,233.903870 117.998779,233.273987 115.229736,232.414673 112.479736,231.230896 109.789429,229.925842 107.158447,228.536133 104.619873,227.008240 102.258789,225.368225 100.151855,223.470398 98.417969,221.324585 97.080322,218.816589 96.204468,215.963318 95.650391,212.956177 95.395874,209.947205 95.451660,207.023071 95.743408,204.081726 96.228638,201.104126 96.778442,198.093323 97.339233,195.043335 97.975464,191.996521 98.643921,188.945618 99.355103,185.901917 99.981445,182.767822 100.790649,179.562927 101.806030,176.035767 102.661255,172.476440 103.419922,168.952332 104.039429,165.405396 104.624878,162.135864 104.694092,159.120422 103.977539,156.561707 102.936646,154.209717 101.624512,152.071289 100.029785,150.159912 98.162842,148.374329 96.366943,146.791809 94.750488,145.401978 93.260864,144.110352 91.854736,142.984619 90.532593,141.999878 89.305298,141.180725 88.075562,140.562378 87.124634,140.192383 85.707153,139.768250" fill="#BD8046" stroke="none" fill-opacity="1" />
				<path d="M189.694580,84.838562L189.687744,84.765564L189.666992,84.695251L189.633057,84.630432L189.586914,84.573425L189.530640,84.526489L189.466187,84.491455L189.396240,84.469666L189.323364,84.461975L189.250244,84.468689L189.180054,84.489441L189.115234,84.523438L189.058228,84.569580L189.011230,84.625916L188.976196,84.690247L188.954224,84.760254L188.946777,84.833130L188.464478,86.299927L187.349731,89.071411L186.446655,91.669006L185.540161,94.111267L184.586304,96.423828L183.563721,98.601746L182.466675,100.635376L181.302612,102.530823L180.068848,104.271362L178.789307,105.859558L177.461060,107.279907L176.095215,108.550049L174.736816,109.619873L173.349976,110.517334L171.988159,111.245789L170.672363,111.779602L169.394775,112.128174L168.161499,112.302551L166.987549,112.314453L165.880127,112.154724L164.780029,111.818848L163.698975,111.308044L162.618408,110.568176L161.507568,109.575378L160.417358,108.319458L159.340942,106.720215L158.273438,104.771545L157.249756,102.462769L156.274780,99.766357L155.308960,96.680176L154.267822,93.190125L153.101074,89.239014L153.089111,89.165833L153.063232,89.096436L153.024170,89.033386L152.973755,88.979187L152.913696,88.935791L152.846313,88.905029L152.774292,88.888000L152.700073,88.885254L152.627075,88.897156L152.557495,88.923035L152.494629,88.961975L152.440308,89.012451L152.396973,89.072510L152.366089,89.139893L152.349121,89.212097L152.346436,89.286011L151.555420,93.399597L151.271606,97.245972L151.445557,100.797913L151.923706,104.041748L152.688843,107.010864L153.688110,109.667969L154.890381,112.029541L156.346924,114.127197L158.001221,115.906189L159.802979,117.360229L161.828613,118.500977L163.927246,119.275085L166.117310,119.702881L168.370728,119.773987L170.567627,119.526794L172.748291,118.979004L174.882935,118.142639L176.929810,117.047913L178.866089,115.753540L180.740112,114.206909L182.504517,112.449829L184.130127,110.527039L185.635620,108.406372L186.990723,106.129822L188.187012,103.665527L189.196289,101.085754L190.003662,98.342346L190.572021,95.492737L190.863403,92.535156L190.776123,89.471741L190.107666,86.380920z" fill="#524939" stroke="none" fill-opacity="0.5" />
				<path d="M124.881836,149.616821L124.831665,149.561890L124.771973,149.517761L124.704834,149.486145L124.632690,149.468201L124.558350,149.464844L124.484863,149.475891L124.414917,149.501099L124.351196,149.539490L124.296143,149.589539L124.252075,149.649353L124.220459,149.716614L124.202637,149.788757L124.199219,149.863037L124.210327,149.936523L124.235474,150.006470L124.273926,150.070129L124.106689,150.618591L123.714600,152.566345L124.039307,154.033081L124.680664,155.341003L125.475708,156.486572L126.502075,157.542480L127.728760,158.449036L129.057739,159.145386L130.653320,159.637634L132.381714,159.819885L134.157959,159.655273L135.924683,159.140930L137.637695,158.288940L139.272339,157.093384L140.803101,155.451782L141.962402,153.168762L142.281616,151.620728L142.334106,151.568848L142.375854,151.507629L142.404541,151.439575L142.419556,151.367188L142.420044,151.293274L142.406250,151.220642L142.378418,151.152100L142.337769,151.090332L142.286011,151.037659L142.224731,150.996155L142.156738,150.967346L142.084229,150.952332L142.010254,150.951782L141.937622,150.965698L141.869263,150.993469L141.807495,151.034119L140.324951,151.001892L138.089722,151.329224L136.449951,151.772095L135.156616,152.092346L134.132080,152.284973L133.356201,152.354736L132.780151,152.341125L132.333618,152.277588L131.940552,152.170166L131.472534,151.982422L130.913086,151.719055L130.277100,151.363464L129.498047,150.887817L128.546631,150.339417L127.357910,149.818054L125.446289,149.624268z" fill="#524939" stroke="none" fill-opacity="0.5" />
				<path d="M63.172241,60.915588L63.135742,60.982544L63.113159,61.055420L63.105103,61.131287L63.112183,61.207214L63.133789,61.280334L63.169067,61.347900L63.217041,61.407227L63.275635,61.456116L63.342773,61.492493L63.415649,61.515137L63.491455,61.523193L63.567383,61.516174L63.640625,61.494629L63.708008,61.459167L63.767456,61.411133L63.816284,61.352539L66.399414,58.363098L68.398682,56.587402L70.669189,54.277039L72.842896,52.082764L75.033691,49.868164L77.216431,47.737305L79.405762,45.648071L81.596680,43.619446L83.782593,41.638367L85.969238,39.750549L88.159912,37.953674L90.385986,36.250000L92.623291,34.633728L94.918701,33.112305L97.239136,31.675842L99.604126,30.350708L102.047241,29.117432L104.545410,27.938538L107.090942,26.823853L109.657104,25.762695L112.229004,24.748901L114.808228,23.807556L117.388184,22.909607L119.932495,22.084473L122.424316,21.367249L124.915527,20.758728L127.388184,20.246460L129.847778,19.840210L132.296509,19.518616L134.716919,19.291504L137.128174,19.161072L139.549072,19.112122L141.970947,19.121338L144.367554,19.193054L146.749390,19.319946L149.092651,19.520142L151.400757,19.790649L153.704590,20.132202L155.991089,20.533325L158.206421,20.982910L160.321533,21.536499L162.388306,22.223816L164.492554,23.061340L166.635620,23.969421L168.772583,24.949951L170.889893,25.976318L172.996094,27.067444L175.084351,28.211548L177.130127,29.418945L179.166016,30.734924L181.197510,32.129517L183.207397,33.630676L185.239868,35.225708L187.273926,36.884216L189.314697,38.587219L191.355103,40.323914L193.382935,42.088623L195.380737,43.874207L197.344849,45.695801L199.247925,47.427490L201.254761,49.209473L203.030884,50.504028L205.402222,52.677795L205.456665,52.726562L205.519531,52.763916L205.588623,52.788208L205.660889,52.798584L205.734131,52.794739L205.804810,52.776550L205.870728,52.744934L205.929321,52.701111L205.978149,52.646729L206.015503,52.583740L206.039795,52.514709L206.050293,52.442322L206.046265,52.369263L206.028076,52.298462L205.996582,52.232483L205.952637,52.173950L204.239624,49.391113L203.216431,47.368774L201.750366,45.052979L200.228882,42.868896L198.530884,40.648987L196.697388,38.477661L194.805420,36.386719L192.879395,34.366638L190.928101,32.410400L188.949341,30.510925L186.918701,28.668274L184.847900,26.910095L182.693359,25.245361L180.545166,23.694702L178.328979,22.242249L176.098877,20.898804L173.880371,19.637817L171.625366,18.451538L169.362305,17.329346L167.056763,16.275452L164.745972,15.296814L162.282104,14.426025L159.739014,13.718140L157.194580,13.159607L154.716797,12.690918L152.212646,12.291138L149.677856,11.971008L147.101074,11.735168L144.501709,11.580261L141.920288,11.496765L139.310913,11.480164L136.688354,11.532593L134.015503,11.681885L131.311646,11.939819L128.595947,12.310608L125.885376,12.772949L123.130371,13.365479L120.382446,14.064209L117.624878,14.890137L114.879639,15.820496L112.175537,16.804504L109.485229,17.841003L106.773560,18.970398L104.107178,20.148193L101.441650,21.397705L98.794556,22.739380L96.193359,24.165222L93.615845,25.733765L91.117554,27.428711L88.706299,29.195618L86.354492,31.086731L84.075806,33.050842L81.846924,35.138733L79.683105,37.307312L77.568237,39.572571L75.515869,41.876953L73.494385,44.282043L71.534302,46.765686L69.631958,49.384521L67.873413,52.030151L66.174683,54.886597L65.016479,57.354492z" fill="#E9D2A1" stroke="none" fill-opacity="1" />
				<path d="M49.750000,77.900696L49.820435,77.930420L49.895264,77.945862L49.971680,77.946350L50.046875,77.931885L50.117798,77.903076L50.181641,77.860962L50.236084,77.807312L50.278931,77.743958L50.308716,77.673462L50.323975,77.598511L50.324463,77.522095L50.310059,77.446960L50.281250,77.376160L50.239136,77.312195L50.185547,77.257812L50.122070,77.214966L48.755371,75.902710L47.527344,74.278503L45.538574,73.005249L43.248047,71.981140L40.639648,71.127441L37.943604,70.492554L35.267578,70.034485L32.598755,69.783020L30.005371,69.759705L27.552612,69.951172L25.216919,70.360474L22.980225,71.023071L20.921753,71.898560L18.952026,73.091614L17.249390,74.466614L15.727051,76.106628L14.469604,77.839417L13.407349,79.698792L12.535522,81.809326L11.890015,83.850281L11.373535,85.976318L10.977051,88.121887L10.720581,90.469177L10.608643,92.885071L10.646973,95.407959L10.850586,98.022156L11.213745,100.682861L11.774658,103.414490L12.592041,106.183228L13.706299,108.868530L15.269531,111.381042L17.160156,113.425659L17.195312,113.494202L17.243042,113.554626L17.301514,113.604431L17.368774,113.641907L17.442139,113.665649L17.518677,113.674561L17.595337,113.668396L17.669312,113.647339L17.737915,113.612305L17.798340,113.564514L17.848145,113.505920L17.885742,113.438660L17.909424,113.365356L17.918213,113.288940L17.911987,113.212219L17.890991,113.138184L17.941895,110.452881L17.804810,107.770386L17.638794,105.187744L17.512817,102.645691L17.472900,100.179138L17.505371,97.792114L17.605347,95.520752L17.790649,93.383606L18.053833,91.377380L18.383545,89.542908L18.806885,87.817810L19.285889,86.147583L19.817383,84.624573L20.357178,83.334045L20.999512,82.222595L21.747314,81.172729L22.538330,80.272888L23.424561,79.507812L24.444702,78.818420L25.645264,78.234192L27.056396,77.718567L28.664307,77.315552L30.499146,77.021790L32.538086,76.845032L34.750488,76.803162L37.134155,76.893616L39.547119,77.047668L41.957275,77.286438L44.154663,77.502991L46.136230,77.604126L47.963867,77.427246z" fill="#E9D2A1" stroke="none" fill-opacity="1" />
				<path d="M218.342651,62.437317L218.290527,62.488159L218.249512,62.548279L218.220825,62.615112L218.205811,62.686340L218.204956,62.759094L218.218262,62.830688L218.245483,62.898254L218.285278,62.959229L218.336182,63.011292L218.395996,63.052368L218.463013,63.080994L218.534302,63.096069L218.607056,63.096863L218.678589,63.083435L218.746216,63.056396L218.807129,63.016663L219.648682,62.896606L220.487183,62.900940L221.207642,62.851257L221.943848,62.755371L222.648804,62.608826L223.302490,62.477234L223.967896,62.340332L224.625122,62.184937L225.273560,62.047791L225.948120,61.880066L226.573975,61.733032L227.214478,61.560547L227.766113,61.419250L228.275391,61.302673L228.767700,61.195862L229.246948,61.103699L229.734741,61.013550L230.173462,60.938904L230.624146,60.880249L231.049805,60.830811L231.509888,60.791870L231.963623,60.748962L232.371704,60.729126L232.776611,60.716736L233.217041,60.719788L233.644531,60.719360L234.027344,60.738953L234.480957,60.766174L234.895996,60.791382L235.262207,60.830505L235.617554,60.877991L236.012207,60.948425L236.438843,61.021484L236.832397,61.100403L237.216309,61.182495L237.590698,61.275269L238.005615,61.384216L238.357300,61.476074L238.713013,61.591553L239.085693,61.706116L239.444458,61.836731L239.856445,61.984619L240.200439,62.107239L240.564087,62.253296L240.959595,62.402405L241.319458,62.554871L241.721191,62.705627L242.028809,62.839539L242.302979,62.947815L242.561035,63.084473L242.867310,63.261047L243.170776,63.476929L243.536621,63.777588L243.947266,64.157227L244.373047,64.571655L244.833618,65.066711L245.307129,65.577271L245.807251,66.147705L246.330688,66.719360L246.901245,67.303162L247.526245,67.817627L248.259399,68.267456L248.923706,68.740051L248.959961,68.802307L249.007812,68.856262L249.065063,68.899841L249.129883,68.931335L249.199707,68.949585L249.271729,68.954041L249.343018,68.944214L249.411133,68.920715L249.473389,68.884399L249.527466,68.836609L249.570801,68.779175L249.602295,68.714478L249.620728,68.644714L249.625122,68.572815L249.615234,68.501404L249.591797,68.433289L249.729492,67.592407L249.924805,66.697266L249.942749,65.799255L249.861572,64.904663L249.684082,64.005981L249.438965,63.110596L249.120361,62.236023L248.778076,61.417969L248.371094,60.623779L247.950562,59.898682L247.478638,59.206787L246.964233,58.566833L246.361694,57.959717L245.875366,57.502808L245.224365,57.024170L244.775879,56.698730L244.219238,56.363770L243.858643,56.120850L243.337646,55.833252L242.947998,55.600586L242.386719,55.328369L241.930786,55.107666L241.463501,54.892883L240.869995,54.662354L240.430054,54.487488L239.789551,54.286682L239.302368,54.135986L238.756470,53.988098L238.177612,53.850708L237.618408,53.736877L237.057983,53.637085L236.553589,53.551086L235.898071,53.475098L235.303345,53.423767L234.637573,53.402222L234.138428,53.387939L233.539307,53.389526L232.867188,53.423035L232.344604,53.455811L231.668091,53.527588L231.071655,53.609802L230.403320,53.733643L229.877808,53.840088L229.210327,54.003418L228.619263,54.167542L227.951538,54.381775L227.364746,54.598389L226.783203,54.828735L226.139526,55.111389L225.549683,55.397095L224.920288,55.725464L224.343506,56.049622L223.773193,56.378235L223.120728,56.767700L222.513916,57.151611L221.802979,57.637268L221.211182,58.099426L220.556274,58.662537L219.963379,59.274048L219.452393,59.911865L218.958862,60.708679L218.656616,61.598999z" fill="#E9D2A1" stroke="none" fill-opacity="1" />
				<path d="M105.363647,157.950928L105.353394,157.876953L105.328857,157.806335L105.291138,157.741882L105.241455,157.686035L105.181763,157.640991L105.114624,157.608398L105.042236,157.589539L104.967651,157.585205L104.893555,157.595459L104.823120,157.619934L104.758545,157.657776L104.702759,157.707458L104.657593,157.767029L104.625122,157.834229L104.606323,157.906616L104.601807,157.981262L104.301636,163.245789L103.351929,167.841919L102.433228,171.744568L101.426880,175.706238L100.313354,179.645874L99.195923,183.505310L98.325928,187.541931L97.536621,191.274658L96.778564,194.860779L96.043213,198.273621L95.420532,201.682434L94.962280,205.013245L94.833496,208.414307L94.951782,211.544739L95.320923,214.555359L96.388184,217.644470L97.630371,220.031128L98.999878,222.117737L100.554688,224.039978L102.610352,225.833801L104.299927,227.131531L106.108765,228.362732L107.940674,229.464600L109.802002,230.462097L111.677612,231.362488L113.617920,232.194458L115.747192,232.957825L118.053467,233.619324L120.332031,234.175171L122.884766,234.633850L125.640747,234.850647L129.863892,234.752441L129.937134,234.762390L130.010376,234.757935L130.081665,234.739136L130.148071,234.706848L130.206665,234.662231L130.255493,234.607117L130.292603,234.543396L130.316650,234.473755L130.326538,234.400757L130.322021,234.327209L130.303223,234.255981L130.270996,234.189697L130.226318,234.131104L130.171143,234.082336L130.107544,234.045166L130.037964,234.021118L126.488281,232.276184L124.315186,230.828979L122.178345,229.603882L120.178955,228.490295L118.243652,227.475830L116.536743,226.509827L114.924438,225.522705L113.339844,224.520447L111.792847,223.499695L110.302124,222.447083L108.851196,221.339294L107.422974,220.140930L106.169067,219.048584L105.188599,217.775940L104.213501,216.265503L103.368530,214.661377L102.747070,213.061096L102.487183,210.955688L102.343994,208.388428L102.368774,205.689636L102.685181,202.761414L103.143677,199.559570L103.716553,196.151672L104.283936,192.469849L104.822876,188.657471L105.324951,184.833069L106.023315,180.940491L106.642334,176.730652L106.974121,172.379517L106.858887,168.079163L105.978027,163.226196z" fill="#E9D2A1" stroke="none" fill-opacity="1" />
				<path d="M127.322144,136.197266L127.346802,136.154175L127.362305,136.107117L127.368530,136.057922L127.364868,136.008484L127.351929,135.960632L127.329590,135.916321L127.299194,135.877197L127.261719,135.844727L127.218506,135.820190L127.171631,135.804565L127.122437,135.798401L127.072876,135.801941L127.025146,135.815125L126.980713,135.837280L126.941650,135.867737L126.909058,135.905212L125.747192,137.054443L124.279297,137.712036L123.293579,139.110596L122.682861,140.583862L122.276489,141.891785L121.999390,143.191711L121.843750,144.450195L121.832275,145.755615L121.954590,146.976685L122.357422,148.355225L122.987305,149.552856L123.745850,150.545959L124.790405,151.476501L126.153809,152.175842L128.017334,152.518677L129.833618,152.095764L131.894775,151.437378L131.944092,151.432617L131.991333,151.418335L132.035034,151.395142L132.073242,151.363892L132.104614,151.325684L132.128174,151.282166L132.142578,151.234802L132.147583,151.185608L132.142822,151.136414L132.128418,151.089050L132.105225,151.045410L132.074097,151.007141L132.035767,150.975708L131.992188,150.952332L131.944946,150.937927L131.895752,150.932983L130.063599,150.291748L128.994385,149.360657L128.140503,148.675598L127.783691,148.169067L127.504028,147.657837L127.246826,147.100830L127.043335,146.592102L126.928955,146.126526L126.874634,145.485657L126.833008,144.668762L126.851807,143.746765L126.898560,142.684509L126.962524,141.522095L126.980591,140.347168L126.989868,139.096069L126.672974,137.673218z" fill="#E9D2A1" stroke="none" fill-opacity="1" />
				<polyline points="189.499512,85.817688 189.484375,84.181091 189.227783,80.962891 188.671997,77.841736 187.816040,74.878784 186.668091,72.134766 185.268311,69.643127 183.625244,67.452637 181.778931,65.597534 179.738525,64.127136 177.565430,63.037231 175.268921,62.365234 172.911255,62.119385 170.512451,62.311401 168.135498,62.937500 165.812134,63.983154 163.574097,65.434143 161.474731,67.249146 159.535889,69.426575 157.800171,71.912903 156.300781,74.667847 155.059326,77.639038 154.098022,80.786316 153.428467,84.045776 153.072266,87.352112 153.030151,90.666931 153.302490,93.927185 153.889526,97.069580 154.770874,100.033386 155.935547,102.794189 157.363037,105.279419 159.032104,107.453918 160.911499,109.271240 162.959351,110.723755 165.154419,111.776855 167.445312,112.411621 169.800903,112.619690 172.190063,112.392700 174.551270,111.737305 176.863770,110.668579 179.066406,109.205261 181.149048,107.373230 183.049927,105.215515 184.759277,102.745117 186.236206,100.014709 187.470215,97.061523 188.419556,93.962463 189.073975,90.742065 189.432739,87.461121" fill="#D7B898" stroke="none" fill-opacity="1" />
				<path d="M77.771729,94.602600L77.763672,94.527283L77.741211,94.455017L77.704956,94.388428L77.656494,94.330200L77.597534,94.282593L77.530640,94.247253L77.458008,94.225830L77.382446,94.218933L77.307129,94.226929L77.234863,94.249512L77.168335,94.285706L77.110107,94.334106L77.062500,94.393127L77.027100,94.460083L77.005615,94.532776L76.998901,94.608215L76.536133,96.151489L75.774536,99.234192L75.626953,102.287598L75.859741,105.224854L76.405151,108.045776L77.203857,110.716370L78.239014,113.225220L79.457642,115.550659L80.885620,117.706848L82.450073,119.638611L84.201904,121.384277L86.020752,122.879700L88.024170,124.172424L90.095093,125.192810L92.233521,125.957275L94.458130,126.450134L96.724976,126.643860L99.015747,126.526367L101.260986,126.100159L103.499756,125.328308L105.639160,124.226318L107.646484,122.811951L109.526611,121.063965L111.223633,119.030273L112.735107,116.715210L114.054077,114.087830L115.148071,111.203979L116.003784,108.019958L116.595215,104.569336L116.860107,100.832642L116.673706,96.819153L115.975464,92.540283L115.972656,92.465332L115.955444,92.392456L115.924316,92.324402L115.880371,92.263611L115.825439,92.212646L115.761719,92.173340L115.691406,92.147278L115.617554,92.135254L115.542725,92.138000L115.469727,92.155334L115.401733,92.186523L115.341064,92.230347L115.289917,92.285217L115.250732,92.349060L115.224487,92.419189L115.212769,92.493164L113.937744,96.532104L112.794312,100.148560L111.739746,103.391846L110.654907,106.286987L109.533569,108.835083L108.356567,111.040833L107.140259,112.935181L105.892456,114.516663L104.630249,115.825745L103.359375,116.878723L102.101440,117.687195L100.843384,118.291199L99.588501,118.700562L98.327271,118.928406L97.031372,118.996582L95.745361,118.896179L94.430054,118.621643L93.081055,118.169373L91.729492,117.554016L90.395142,116.768982L89.067139,115.777771L87.748169,114.622681L86.494629,113.290222L85.277466,111.779785L84.127930,110.084290L83.042725,108.217834L82.033081,106.169373L81.095947,103.949097L80.217041,101.544556L79.326782,98.937500L78.236084,96.114929z" fill="#524939" stroke="none" fill-opacity="0.5" />
				<polyline points="115.617554,92.288086 115.590942,90.616272 115.301392,87.329224 114.699829,84.141968 113.774780,81.117737 112.567383,78.315857 111.087524,75.773071 109.355469,73.538391 107.413086,71.646667 105.270264,70.148254 102.980347,69.039673 100.585815,68.356445 98.119019,68.109741 95.612305,68.310425 93.131226,68.954529 90.708618,70.027283 88.378296,71.514038 86.184204,73.373474 84.182129,75.601135 82.383911,78.145020 80.834229,80.962891 79.544922,84.002136 78.560669,87.219971 77.893188,90.550659 77.542847,93.929688 77.520752,97.316833 77.827271,100.647278 78.451416,103.857727 79.392822,106.883972 80.640259,109.701233 82.149536,112.237244 83.909302,114.455139 85.875854,116.308716 88.037354,117.787109 90.339722,118.857971 92.739136,119.501465 95.203247,119.708862 97.699463,119.471619 100.163452,118.796936 102.563232,117.701050 104.866699,116.200439 107.031616,114.324585 109.004395,112.116333 110.774902,109.589233 112.300415,106.796936 113.560059,103.778748 114.542725,100.610107 115.205444,97.319153 115.558594,93.966919" fill="#D7B898" stroke="none" fill-opacity="1" />
				<path d="M233.213013,81.116577L233.261230,81.113342L233.307617,81.100647L233.350830,81.079102L233.388916,81.049622L233.420654,81.013245L233.444580,80.971313L233.459961,80.925598L233.466064,80.877808L233.462646,80.829712L233.450073,80.783203L233.428467,80.739990L233.399048,80.701843L233.362549,80.670166L233.320801,80.646301L233.275024,80.630920L233.227173,80.624878L232.488403,80.297546L230.430176,79.565857L228.549805,79.536255L226.699097,79.807983L224.827026,80.464844L223.124756,81.374329L221.561646,82.544128L220.209595,83.761658L218.914673,85.143555L217.675781,86.710327L216.532471,88.409180L215.490112,90.381348L214.657349,92.578918L214.091675,95.001404L213.912598,97.529846L214.349731,100.009155L214.719849,102.126282L214.718872,102.174683L214.727417,102.222412L214.744873,102.267517L214.770874,102.308350L214.804321,102.343384L214.843872,102.371094L214.888306,102.390564L214.935547,102.401062L214.983887,102.402161L215.031494,102.393738L215.076660,102.376221L215.117432,102.350159L215.152466,102.316711L215.180176,102.277100L215.199829,102.232788L215.210327,102.185486L216.115845,100.215393L217.093262,98.102112L217.877197,96.107056L218.689087,94.252502L219.550171,92.615295L220.486328,91.133423L221.492676,89.771362L222.529053,88.497803L223.570679,87.364502L224.629028,86.328796L225.677002,85.392273L226.785034,84.592896L227.983154,83.875854L229.384766,83.232056L230.826416,82.504456L232.494873,81.380859z" fill="#524939" stroke="none" fill-opacity="0.5" />
				<path d="M22.188599,99.019897L22.139771,99.035522L22.094849,99.060425L22.055664,99.093567L22.023682,99.133789L22.000244,99.179443L21.986084,99.228699L21.981812,99.279846L21.987671,99.330750L22.003296,99.379639L22.028076,99.424500L22.061279,99.463745L22.101440,99.495728L22.147217,99.519104L22.196411,99.533264L22.247559,99.537476L22.298584,99.531677L23.162231,99.670532L25.253052,100.527832L26.956299,101.016968L28.548462,101.424988L29.876587,101.940430L31.068237,102.545532L32.181396,103.301147L33.315186,104.166260L34.427612,105.127686L35.510620,106.229187L36.552490,107.433838L37.522705,108.776794L38.407471,110.305115L39.236816,112.099365L40.032104,114.096313L41.030762,116.251282L41.951782,118.283630L41.963013,118.333313L41.983643,118.379822L42.013062,118.421509L42.049805,118.456665L42.092773,118.483887L42.140381,118.502197L42.190552,118.510803L42.241455,118.509644L42.291138,118.498413L42.337769,118.477783L42.379395,118.448486L42.414429,118.411621L42.441650,118.368530L42.460083,118.321045L42.468750,118.270874L42.467529,118.219910L42.889648,116.037964L43.401489,113.634766L43.269409,111.111816L42.708252,108.682678L41.839844,106.497253L40.703125,104.536987L39.415527,102.854248L38.060791,101.400696L36.594727,100.124146L35.092041,99.052124L33.484253,98.127869L31.540894,97.398071L29.488770,97.002808L27.261841,97.008118L25.252930,97.378296L23.037354,98.525330z" fill="#524939" stroke="none" fill-opacity="0.5" />
			</g>
			<!--Layer: Lines-->
			<g id="Lines">
				<path d="M60.398682,68.160339L60.380859,68.234497L60.377930,68.310730L60.389648,68.386047L60.416016,68.457642L60.456055,68.522766L60.507690,68.578857L60.569458,68.623657L60.638672,68.655640L60.712891,68.673462L60.789062,68.676514L60.864502,68.664612L60.936279,68.638123L61.001221,68.598328L61.057129,68.546570L61.102051,68.484802L61.134033,68.415466L62.499023,65.899841L65.544434,61.082764L68.600464,56.383606L71.877808,51.848999L75.412720,47.489624L79.225220,43.327454L83.288208,39.403992L87.622803,35.718506L92.174194,32.278809L96.943237,29.125000L101.899658,26.259521L107.011963,23.698853L112.264160,21.470032L117.619629,19.574951L123.058350,18.049988L128.563477,16.880920L134.094971,16.095886L139.631470,15.705139L145.145874,15.729736L150.629517,16.164429L156.043335,17.032776L161.373901,18.331238L166.613281,20.078064L171.734009,22.289246L176.721191,24.960083L181.559204,28.129028L186.268921,31.813049L190.813599,35.998413L195.209961,40.721680L199.475830,45.990906L203.707886,51.784485L207.958984,58.139221L208.000610,58.199341L208.053223,58.249939L208.114502,58.289490L208.182495,58.316284L208.254517,58.329224L208.327393,58.327942L208.398926,58.312439L208.465698,58.283325L208.525757,58.241699L208.576538,58.189087L208.616089,58.127625L208.642822,58.059692L208.655762,57.987793L208.654541,57.914795L208.638916,57.843384L208.609863,57.776428L206.029785,50.430359L202.790649,43.688049L198.986206,37.599304L194.749634,32.122253L190.156982,27.243042L185.244629,22.930054L180.078735,19.195312L174.663818,16.028442L169.064697,13.407043L163.292969,11.322510L157.408936,9.768799L151.432739,8.719360L145.379517,8.170837L139.313477,8.097961L133.231812,8.497681L127.186035,9.340759L121.192139,10.613708L115.292358,12.289429L109.489624,14.385803L103.838013,16.854675L98.349854,19.702026L93.067627,22.898010L88.010010,26.428894L83.219482,30.304016L78.729736,34.466919L74.576294,38.933777L70.794556,43.696106L67.447388,48.712830L64.585815,53.970581L62.327637,59.486877L60.910767,65.259583z" fill="#000000" stroke="none" fill-opacity="1" />
				<path d="M52.692993,95.969421L52.667480,95.897461L52.628296,95.831848L52.577515,95.775208L52.516235,95.729492L52.447266,95.696655L52.373535,95.677734L52.297241,95.673828L52.221802,95.684753L52.149780,95.710083L52.084106,95.749146L52.027466,95.800171L51.981689,95.861389L51.948853,95.930176L51.930176,96.004150L51.926147,96.080383L51.937012,96.155823L52.017944,98.515686L52.243896,103.005432L52.962646,107.087769L53.971680,110.827637L55.183228,114.249939L56.555176,117.372375L58.058838,120.213013L59.704834,122.807617L61.448120,125.157410L63.277832,127.275452L65.198853,129.201355L67.161621,130.922974L69.168945,132.482117L71.205566,133.893616L73.259277,135.180786L75.302490,136.364746L77.355225,137.476685L79.361694,138.534180L81.350952,139.565491L83.283325,140.572815L85.201416,141.620972L87.098022,142.688293L88.951294,143.818970L90.781006,145.021790L92.586548,146.332031L94.393433,147.763672L96.188354,149.337830L97.999268,151.088379L99.854858,153.037659L101.789795,155.190674L103.919556,157.529663L106.295654,160.110229L106.335938,160.173035L106.388062,160.226685L106.449219,160.269226L106.517822,160.298950L106.590820,160.314758L106.665527,160.315979L106.739014,160.302673L106.808350,160.275269L106.871094,160.234802L106.924927,160.182922L106.967407,160.121521L106.997192,160.053040L107.013062,159.980042L107.014404,159.905334L107.000977,159.831909L106.973511,159.762390L106.341919,156.238586L105.297119,153.032715L103.941162,150.166565L102.388062,147.571106L100.695435,145.226318L98.888184,143.106689L96.986816,141.189819L95.047241,139.465881L93.035400,137.896729L91.017578,136.473755L88.952759,135.166565L86.947876,133.966187L84.914673,132.828308L82.920898,131.745300L80.969482,130.687866L79.060059,129.642578L77.202637,128.571777L75.384155,127.461670L73.618286,126.291260L71.889893,125.031616L70.203125,123.667175L68.539062,122.165161L66.920288,120.513916L65.305542,118.654541L63.715698,116.602173L62.151001,114.288879L60.577148,111.693359L58.997192,108.793091L57.389526,105.572815L55.691162,102.010071L53.677612,98.094055z" fill="#000000" stroke="none" fill-opacity="1" />
				<path d="M103.352051,171.100159L103.352905,171.025513L103.339233,170.952087L103.311523,170.882751L103.270508,170.820190L103.218506,170.766785L103.156982,170.724548L103.088257,170.695190L103.015015,170.679749L102.940430,170.678894L102.867065,170.692627L102.797607,170.720398L102.735229,170.761169L102.681763,170.813416L102.639404,170.875000L102.610229,170.943726L102.594727,171.016724L102.348389,172.194641L101.347778,174.487000L100.423096,176.822144L99.529419,179.191406L98.629395,181.612488L97.731201,184.076599L96.843262,186.569397L95.956787,189.077820L95.102295,191.636780L94.296143,194.190613L93.556152,196.782410L92.894287,199.359863L92.332031,201.961670L91.903564,204.589111L91.621460,207.189331L91.525146,209.820618L91.624756,212.421936L91.950195,215.008972L92.561646,217.602417L93.457520,220.121094L94.665771,222.573608L96.245972,224.948242L98.138306,227.163086L100.386963,229.250366L103.000244,231.181458L105.974487,232.941467L109.359253,234.534973L113.158813,235.947754L117.345947,237.170959L121.904297,238.191162L126.612061,238.939453L131.156982,239.375366L135.352539,239.445923L139.133179,239.195984L142.543701,238.733948L145.675781,238.120789L148.596924,237.363403L151.307373,236.483398L153.872314,235.440125L156.232910,234.268311L158.437622,232.935913L160.437622,231.486633L162.282593,229.892090L163.954956,228.137390L165.430420,226.287354L166.731689,224.303528L167.855713,222.195190L168.794312,219.990112L169.557495,217.718567L170.160522,215.330566L170.595825,212.860535L170.880127,210.333252L171.018921,207.717651L171.022583,205.028687L170.895264,202.264160L170.644775,199.432495L170.269531,196.521423L169.767090,193.520508L169.140747,190.447266L168.375488,187.307312L167.476318,184.092773L166.374146,180.815308L165.026001,177.500244L164.521973,175.769531L164.497192,175.700562L164.459595,175.637756L164.410278,175.583496L164.351318,175.539856L164.285034,175.508606L164.213867,175.490906L164.140747,175.487366L164.068237,175.498108L163.999268,175.522888L163.936401,175.560608L163.882202,175.609924L163.838623,175.668823L163.807373,175.735107L163.789673,175.806152L163.786133,175.879395L163.796997,175.951843L164.090942,177.725098L164.214600,181.302002L164.442505,184.711121L164.686646,187.991150L164.925537,191.127563L165.117920,194.144409L165.251587,197.036987L165.308716,199.793823L165.287964,202.432129L165.186401,204.947388L164.991821,207.340027L164.707275,209.596375L164.324341,211.718933L163.844604,213.719604L163.267578,215.585754L162.589233,217.323792L161.813110,218.956543L160.938721,220.471375L159.959717,221.873474L158.857300,223.197937L157.645264,224.430969L156.287598,225.578857L154.772705,226.653931L153.097412,227.658264L151.234619,228.571228L149.178101,229.406921L146.905029,230.135925L144.412109,230.782776L141.698608,231.314636L138.754883,231.719482L135.554565,231.949219L131.944458,231.903503L127.877563,231.528809L123.609985,230.863464L119.487427,229.958008L115.765625,228.895081L112.483276,227.704834L109.663208,226.425476L107.266357,225.053406L105.240479,223.618835L103.544556,222.110718L102.149414,220.563477L101.017212,218.966736L100.130615,217.307068L99.438599,215.547791L98.927734,213.715759L98.603394,211.781372L98.430664,209.723694L98.403198,207.586731L98.527466,205.355713L98.764282,203.038208L99.120117,200.658325L99.568237,198.202942L100.071411,195.700195L100.631470,193.163757L101.212524,190.582581L101.798462,187.989685L102.346802,185.362488L102.839355,182.746399L103.244019,180.122620L103.507324,177.505310L103.568115,174.896912L103.319214,172.330627z" fill="#000000" stroke="none" fill-opacity="1" />
				<path d="M86.878906,51.019714L86.824341,51.072388L86.781006,51.134583L86.750732,51.204041L86.734497,51.278198L86.733032,51.353943L86.746460,51.428589L86.774170,51.499207L86.814941,51.562988L86.867554,51.617615L86.929810,51.660889L86.999390,51.691162L87.073364,51.707397L87.149292,51.708740L87.223877,51.695374L87.294556,51.667786L87.358276,51.626770L88.466064,50.892578L92.997192,49.192322L96.717651,48.071350L99.884033,47.580994L102.625610,47.627319L105.109131,48.107971L107.466553,48.953674L109.786133,50.116821L112.146118,51.575195L114.575684,53.238281L117.085693,55.032104L119.678833,56.844604L122.452515,58.604492L125.443970,60.194763L128.752563,61.455811L132.111084,62.204651L135.320312,62.310364L138.286987,61.785339L141.007446,60.725952L143.442627,59.371216L145.736694,57.831665L147.996948,56.132080L150.223877,54.386902L152.464478,52.612793L154.753784,50.879089L157.137451,49.221741L159.639648,47.677795L162.283936,46.291199L165.107300,45.075012L168.172729,44.051697L171.542358,43.172119L175.346924,42.226257L176.351074,42.241028L176.424927,42.240662L176.497314,42.225891L176.565430,42.197144L176.626587,42.155884L176.678467,42.103333L176.719360,42.041687L176.747070,41.973328L176.761230,41.900757L176.760864,41.826904L176.746094,41.754517L176.717285,41.686462L176.675903,41.625305L176.623413,41.573242L176.561768,41.532532L176.493408,41.504700L176.420898,41.490662L175.416992,41.258728L171.487061,40.041565L167.615967,39.761719L163.900757,40.099731L160.378296,40.917664L157.077271,42.092407L153.983032,43.546875L151.115845,45.171204L148.457153,46.884705L145.986328,48.603943L143.724243,50.203857L141.632324,51.656616L139.708618,52.871033L137.951172,53.817810L136.408447,54.435181L134.926758,54.716064L133.162964,54.665771L130.930908,54.167236L128.513428,53.261475L126.076904,51.997498L123.576294,50.478210L121.013672,48.799255L118.396851,47.090088L115.657593,45.439270L112.775513,43.945374L109.668335,42.744202L106.340698,41.983337L102.785522,41.822571L99.071655,42.421570L95.275146,43.892395L91.491211,46.362793L87.895874,50.076965z" fill="#000000" stroke="none" fill-opacity="1" />
				<path d="M209.550537,82.487671L209.559937,82.415466L209.554932,82.342712L209.536133,82.272339L209.503784,82.207092L209.459351,82.149353L209.404419,82.101440L209.341187,82.065063L209.272217,82.041748L209.199951,82.032410L209.127075,82.037292L209.056885,82.056274L208.991577,82.088684L208.933716,82.133118L208.885742,82.187988L208.849487,82.251099L208.826172,82.320190L207.869995,84.445251L205.899780,88.391785L204.225830,92.029358L202.663208,95.362732L201.122559,98.407166L199.589844,101.178406L198.050537,103.705444L196.505859,105.997375L194.932495,108.109680L193.350952,110.033875L191.726929,111.824585L190.083862,113.486023L188.407593,115.049561L186.685791,116.535583L184.926514,117.971008L183.134521,119.372681L181.312744,120.752380L179.448120,122.147339L177.563477,123.561096L175.671143,125.012634L173.738770,126.562073L171.827881,128.176270L169.903931,129.930542L168.012451,131.798218L166.145020,133.841980L164.331787,136.046021L162.581909,138.458069L160.921021,141.085754L159.388672,143.975037L158.034912,147.117249L156.970947,150.596924L156.283691,154.423889L156.259033,154.493286L156.248413,154.566101L156.252319,154.639587L156.270508,154.710938L156.302246,154.777344L156.346191,154.836304L156.400879,154.885498L156.464111,154.923096L156.533569,154.947632L156.606567,154.958252L156.679810,154.954346L156.751099,154.936218L156.817627,154.904541L156.876709,154.860535L156.925781,154.805786L156.963379,154.742554L159.369873,151.841370L161.528931,149.166016L163.491089,146.667786L165.357178,144.372070L167.195068,142.267761L169.006348,140.329956L170.818115,138.535156L172.620605,136.863159L174.436035,135.297485L176.266724,133.802185L178.107788,132.376404L179.977295,130.971375L181.846802,129.605652L183.744751,128.224060L185.642212,126.825867L187.532837,125.398621L189.437744,123.896057L191.332153,122.312927L193.217773,120.621338L195.082764,118.786621L196.897583,116.818726L198.673950,114.670959L200.379517,112.347107L202.016968,109.804382L203.549561,107.059448L204.987915,104.074890L206.303101,100.828796L207.473999,97.309998L208.453857,93.497681L209.185791,89.374268L209.454956,84.849182z" fill="#000000" stroke="none" fill-opacity="1" />
				<path d="M121.242065,210.174133L121.207275,210.139221L121.166260,210.111816L121.120728,210.092834L121.072266,210.083252L121.022949,210.083191L120.974365,210.092773L120.928833,210.111633L120.887817,210.139038L120.852905,210.173889L120.825439,210.214905L120.806519,210.260559L120.796875,210.308960L120.796875,210.358276L120.806519,210.406677L120.825439,210.452271L120.852783,210.493347L120.952515,211.099426L121.194946,212.290894L121.691284,213.291321L122.319946,214.172058L123.002319,214.949402L123.798096,215.660156L124.595947,216.267151L125.454102,216.808777L126.351440,217.268311L127.281982,217.648682L128.241211,217.947693L129.171875,218.167480L130.165405,218.317261L131.159180,218.384583L132.171387,218.371521L133.179199,218.275085L134.140015,218.119507L135.165527,217.863525L136.085938,217.576477L137.088745,217.175171L138.032837,216.709778L138.932983,216.195190L139.817139,215.618164L140.715820,214.925537L141.528198,214.211365L142.333130,213.406250L143.080078,212.545593L143.779419,211.596985L144.407837,210.581665L144.945923,209.448975L145.306641,208.211304L145.455566,206.832336L145.479492,206.789612L145.494873,206.743042L145.500610,206.694336L145.496826,206.645508L145.483765,206.598389L145.461426,206.554626L145.431152,206.516052L145.394165,206.484192L145.351440,206.460144L145.304810,206.444885L145.256104,206.439026L145.207397,206.442810L145.160156,206.455994L145.116333,206.478149L145.077881,206.508362L145.046021,206.545593L143.868408,207.128601L142.851807,207.747925L141.977539,208.392700L141.154419,209.015503L140.382324,209.602966L139.633789,210.145447L138.892090,210.658569L138.155518,211.130920L137.458740,211.554993L136.767944,211.917358L136.049927,212.260986L135.356323,212.563110L134.714478,212.804871L134.030029,212.999939L133.361328,213.173279L132.718628,213.284851L132.051392,213.365540L131.404785,213.404541L130.766724,213.399109L130.124878,213.352600L129.466919,213.258057L128.796997,213.133301L128.141846,212.970276L127.476562,212.761841L126.794067,212.510925L126.082153,212.207336L125.358032,211.883362L124.606079,211.507507L123.791260,211.108887L122.900269,210.713379L121.801147,210.387573z" fill="#000000" stroke="none" fill-opacity="1" />
				<path d="M121.463379,145.652649L121.453613,145.701233L121.453247,145.750854L121.462769,145.799561L121.481567,145.845459L121.508911,145.886841L121.543945,145.922119L121.585083,145.949890L121.630859,145.969055L121.679321,145.978943L121.729004,145.979187L121.777832,145.969666L121.823608,145.950928L121.864990,145.923523L121.900146,145.888611L121.928101,145.847473L121.947144,145.801697L122.213989,145.183044L123.647705,143.104492L124.725342,141.398193L125.599976,140.093689L126.338257,139.206116L126.887695,138.720459L127.218750,138.576050L127.301758,138.615173L127.272461,138.690002L127.358521,138.781555L127.653809,138.987183L128.131714,139.359802L128.732666,139.880188L129.459717,140.548035L130.266602,141.294067L131.167725,142.102173L132.365479,142.830688L133.112183,143.095947L133.904419,143.116455L134.494873,143.025757L135.725830,142.567749L136.684570,141.908569L137.440186,141.163696L138.035278,140.443970L138.553101,139.748718L138.991943,139.121765L139.379639,138.569580L139.725952,138.101624L140.041016,137.715271L140.336670,137.375610L140.651733,137.081238L141.100464,136.790833L141.817505,136.528503L142.968018,136.225769L143.260742,136.288879L143.307251,136.305603L143.355957,136.312927L143.405396,136.310608L143.453125,136.298706L143.497681,136.277710L143.537476,136.248352L143.570679,136.211853L143.596191,136.169617L143.612915,136.123169L143.620239,136.074402L143.617798,136.025146L143.605957,135.977234L143.584961,135.932617L143.555542,135.892944L143.518921,135.859680L143.476807,135.834290L143.237305,135.634705L142.492065,134.550476L141.453369,133.933411L140.304932,133.692993L139.153198,133.775879L138.032227,134.158386L137.097412,134.679077L136.248901,135.342468L135.538574,136.017517L134.922607,136.669800L134.412354,137.221069L133.969116,137.677979L133.644043,137.976746L133.471802,138.101501L133.483032,138.108398L134.033081,138.136841L134.239380,138.108521L133.565430,137.487793L132.740723,136.754211L131.911011,136.044373L131.060669,135.395325L130.152954,134.821472L129.135986,134.359070L127.945312,134.093323L126.605957,134.171875L125.271484,134.715942L124.163452,135.659607L123.288452,136.924744L122.613647,138.416016L122.071655,140.232910L121.679688,142.376648L121.592285,144.983276z" fill="#000000" stroke="none" fill-opacity="1" />
				<path d="M216.884766,63.770691L216.833008,63.821960L216.792358,63.882446L216.764282,63.949585L216.749878,64.020935L216.749512,64.093689L216.763428,64.165161L216.791138,64.232544L216.831299,64.293213L216.882690,64.344849L216.943115,64.385559L217.010132,64.413696L217.081543,64.428162L217.154419,64.428467L217.225830,64.414490L217.293213,64.386963L217.353882,64.346619L219.416626,63.189209L223.355103,61.389526L226.788818,59.903687L229.862427,58.847351L232.615845,58.215271L235.038086,57.985046L237.155762,58.108826L238.974121,58.529968L240.511597,59.226257L241.845215,60.156311L242.970337,61.297180L243.934692,62.685852L244.745972,64.335999L245.377441,66.239136L245.807251,68.389709L246.005005,70.807007L245.962036,73.449707L245.628784,76.284546L245.007080,79.307190L244.059570,82.478394L242.784912,85.794373L241.160645,89.213257L239.171021,92.710876L236.800903,96.275085L234.027954,99.880066L230.847046,103.518799L227.243042,107.160339L223.188599,110.791931L218.680298,114.424500L213.721191,118.074646L208.311401,121.826965L202.429688,125.714050L202.366699,125.750427L202.311890,125.798401L202.267700,125.856079L202.235596,125.921265L202.216675,125.991516L202.211914,126.064148L202.221436,126.136292L202.244751,126.205078L202.281128,126.268127L202.329102,126.322815L202.386841,126.367126L202.452148,126.399292L202.522217,126.418152L202.594849,126.422913L202.666992,126.413452L202.735840,126.390076L209.446411,124.240784L215.625366,121.583740L221.233521,118.526672L226.330200,115.222290L230.944092,111.732971L235.087402,108.084595L238.770996,104.333740L242.014771,100.523743L244.831909,96.654358L247.229126,92.779846L249.220947,88.897644L250.810425,85.052490L252.012573,81.286438L252.829468,77.584900L253.277222,74.018372L253.344482,70.549622L253.057739,67.276489L252.387085,64.170227L251.341553,61.297058L249.913574,58.684875L248.115723,56.399170L245.943604,54.502014L243.450439,53.056824L240.698853,52.118469L237.703003,51.739258L234.615845,51.905151L231.392822,52.654480L228.121094,53.977539L224.824219,55.895508L221.550781,58.480408L218.446167,61.874939z" fill="#000000" stroke="none" fill-opacity="1" />
				<path d="M53.407227,81.112427L53.468140,81.158508L53.536865,81.191711L53.610840,81.210876L53.687134,81.215332L53.762817,81.204834L53.834961,81.179810L53.900757,81.141052L53.957764,81.090332L54.003784,81.029358L54.037231,80.960693L54.056396,80.886719L54.060791,80.810425L54.050293,80.734802L54.025269,80.662720L53.986450,80.596802L53.935791,80.539795L52.260010,78.290161L50.606079,76.127197L48.824463,74.244629L47.001343,72.588684L45.102417,71.141968L43.216431,69.897461L41.301758,68.832275L39.350586,67.955688L37.435181,67.255554L35.502686,66.732056L33.568359,66.389221L31.643311,66.231445L29.794556,66.230774L27.945801,66.403259L26.151123,66.733704L24.375610,67.253113L22.706421,67.898926L21.090698,68.698303L19.547852,69.641968L18.085327,70.717102L16.734253,71.879944L15.432007,73.217529L14.263428,74.612244L13.180420,76.101318L12.193970,77.692017L11.310547,79.349548L10.524170,81.107849L9.851562,82.894531L9.274170,84.781921L8.813477,86.696350L8.449585,88.647644L8.196289,90.679993L8.062866,92.749512L8.034058,94.817200L8.111084,96.909058L8.314575,99.067810L8.648193,101.233582L9.077148,103.362061L9.656372,105.550842L10.337524,107.694458L11.149780,109.848450L12.102295,111.998413L13.171143,114.111755L14.386719,116.207336L15.705566,118.250122L17.187134,120.284729L18.796387,122.254883L20.542236,124.179504L22.412964,126.040649L24.434204,127.844482L26.605957,129.576538L28.880737,131.218750L31.320801,132.784973L33.888306,134.261719L36.610718,135.640503L39.468018,136.905518L42.458008,138.054688L45.595703,139.082275L48.883301,139.968262L52.301025,140.689880L55.883057,141.209900L59.606689,141.479004L63.427734,141.697632L63.503174,141.703979L63.578369,141.695374L63.650757,141.672363L63.716919,141.635681L63.774902,141.586792L63.822021,141.527588L63.856689,141.460205L63.877686,141.387451L63.884155,141.311829L63.875610,141.236633L63.852417,141.164429L63.815674,141.098145L63.766846,141.040283L63.707642,140.993042L63.640381,140.958313L63.567505,140.937378L59.962891,139.814026L56.562622,138.504761L53.310303,137.256897L50.222290,135.997803L47.274170,134.714722L44.481812,133.386475L41.841675,132.015869L39.347412,130.598633L37.000732,129.133179L34.791748,127.610962L32.724976,126.058350L30.796753,124.459045L28.987427,122.827087L27.327271,121.167175L25.787598,119.463501L24.358521,117.734070L23.062012,115.995972L21.882568,114.240845L20.821899,112.460449L19.864624,110.677246L19.021240,108.885437L18.279419,107.088562L17.649902,105.306885L17.118042,103.504028L16.678589,101.736145L16.349976,99.969849L16.098389,98.217346L15.948486,96.511536L15.898804,94.818359L15.924316,93.139709L16.029663,91.511169L16.219849,89.944397L16.499146,88.404419L16.847534,86.914795L17.262817,85.487915L17.755981,84.125549L18.308105,82.821533L18.930542,81.588074L19.601318,80.435120L20.340820,79.346436L21.137451,78.325012L21.959229,77.399170L22.841431,76.565857L23.783691,75.785950L24.748779,75.109802L25.765259,74.519104L26.851807,74.001343L27.959229,73.573547L29.125244,73.246399L30.353882,73.007202L31.660156,72.871399L33.037598,72.828552L34.465210,72.902222L35.958740,73.098206L37.559448,73.435242L39.224854,73.885742L40.955933,74.487671L42.782593,75.238525L44.697876,76.121826L46.704224,77.157410L48.831543,78.305420L51.111450,79.564636z" fill="#000000" stroke="none" fill-opacity="1" />
				<polyline points="162.806274,82.902771 162.810791,82.554504 163.017212,81.157593 163.440552,79.866394 164.059326,78.757507 164.840454,77.920898 165.721069,77.399170 166.638062,77.222290 167.538940,77.419373 168.351318,77.971436 169.034546,78.831848 169.526855,79.956055 169.798828,81.259766 169.841431,82.644714 169.645630,84.037537 169.223145,85.325989 168.596191,86.421570 167.827271,87.269531 166.948486,87.792725 166.032349,87.972107 165.131470,87.778137 164.307617,87.229858 163.633179,86.370300 163.138672,85.246277 162.854492,83.942017 162.801514,83.251038" fill="#000000" stroke="none" fill-opacity="1" />
				<polyline points="96.219604,88.630432 96.233154,88.274536 96.428833,86.851318 96.861816,85.534485 97.498901,84.403198 98.306763,83.549011 99.219727,83.015686 100.172607,82.833923 101.111206,83.033264 101.959717,83.594482 102.675293,84.470215 103.194214,85.615234 103.484741,86.943481 103.537354,88.354980 103.341675,89.774841 102.909912,91.088745 102.264038,92.206543 101.469116,93.072144 100.557983,93.606934 99.605957,93.791443 98.667480,93.595459 97.817993,93.037109 97.100464,92.163208 96.579346,91.018555 96.276123,89.689636 96.227539,88.984497" fill="#000000" stroke="none" fill-opacity="1" />
				<path d="M154.444702,97.207031L154.410156,97.141541L154.363647,97.084045L154.306763,97.036743L154.241821,97.001404L154.171021,96.979492L154.097534,96.971802L154.023682,96.978577L153.952759,96.999512L153.887329,97.034058L153.829834,97.080566L153.782471,97.137512L153.747070,97.202637L153.725220,97.273254L153.717529,97.346924L153.724365,97.420593L153.745361,97.491577L154.265259,100.173218L155.959595,105.088135L158.286377,108.594421L161.406738,111.445618L164.844849,113.317688L168.357178,114.256409L171.831177,114.376221L175.182373,113.782471L178.349731,112.562195L181.299194,110.785706L184.031128,108.480042L186.542969,105.600159L188.782349,102.140076L190.686523,98.097595L192.130615,93.461182L192.959839,88.392639L193.053223,83.069885L192.352783,77.819885L190.895752,73.016663L188.813232,68.876831L186.297241,65.525024L183.426636,62.918945L180.327515,61.062012L177.029663,59.926392L173.666626,59.537537L170.246460,59.868774L166.893311,60.919250L163.650879,62.737976L160.666260,65.288208L157.987183,68.655457L155.991577,72.666382L154.471924,78.042114L154.445923,78.111572L154.434204,78.184631L154.436768,78.258789L154.453979,78.330872L154.484497,78.398376L154.527954,78.458435L154.582031,78.508972L154.645264,78.547913L154.714478,78.573792L154.787842,78.585693L154.861816,78.583069L154.933960,78.566040L155.001465,78.535278L155.061523,78.491882L155.112061,78.437683L155.151001,78.374634L158.274292,74.152222L161.012695,71.394226L163.741699,69.158508L166.321777,67.614258L168.773926,66.643127L171.076416,66.196838L173.262817,66.173645L175.266357,66.566223L177.211670,67.379761L179.080811,68.639099L180.870728,70.412842L182.530640,72.746704L183.981079,75.740723L185.044922,79.334656L185.582642,83.398743L185.524780,87.578796L184.905396,91.573608L183.831543,95.211670L182.432495,98.378540L180.831787,101.037476L179.107056,103.202637L177.291870,104.931763L175.388550,106.284912L173.400513,107.280212L171.321167,107.892334L169.128296,108.112244L166.777954,107.862244L164.208008,106.994690L161.442749,105.331848L158.846436,103.140198L155.779053,99.488098z" fill="#000000" stroke="none" fill-opacity="1" />
				<path d="M20.568604,99.303833L20.531128,99.338928L20.501221,99.380615L20.480103,99.427429L20.468384,99.477417L20.466675,99.528748L20.475220,99.579407L20.493164,99.627380L20.520264,99.670959L20.555420,99.708435L20.597168,99.738342L20.643921,99.759460L20.693970,99.771179L20.745117,99.772766L20.795898,99.764404L20.843994,99.746277L20.887573,99.719238L21.536987,99.616882L23.854614,99.299805L25.647949,98.934998L27.199829,98.735352L28.603271,98.722778L29.894287,98.890930L31.126831,99.212769L32.323853,99.714233L33.510376,100.385864L34.663818,101.218628L35.775024,102.206177L36.855713,103.354187L37.915527,104.633789L38.958130,106.007874L40.046021,107.463318L41.389160,108.924500L42.303955,109.651978L42.323120,109.699097L42.351196,109.741577L42.387085,109.777832L42.429321,109.806396L42.476440,109.826050L42.526245,109.836243L42.577148,109.836548L42.627075,109.826843L42.674438,109.807556L42.716919,109.779541L42.753174,109.743652L42.781616,109.701416L42.801270,109.654419L42.811523,109.604492L42.811890,109.553528L42.802124,109.503540L43.174561,108.360291L43.208374,106.207031L42.668335,104.144470L41.835449,102.224670L40.773193,100.433228L39.517456,98.792603L38.056519,97.325378L36.432495,96.074890L34.664551,95.062500L32.752930,94.324463L30.702515,93.916565L28.604980,93.882385L26.442749,94.274597L24.350464,95.123779L22.406250,96.499512L20.888916,98.664246z" fill="#000000" stroke="none" fill-opacity="1" />
				<path d="M234.259766,81.077026L234.303345,81.097717L234.350098,81.109436L234.398193,81.111755L234.445679,81.104797L234.491333,81.088562L234.532593,81.063782L234.568359,81.031433L234.597046,80.992676L234.617676,80.949097L234.629395,80.902405L234.631836,80.854187L234.624878,80.806519L234.608521,80.761047L234.583862,80.719727L234.551514,80.684082L234.512695,80.655212L234.261353,80.133484L232.972656,78.401672L231.256104,77.396301L229.360840,76.880371L227.433838,76.793518L225.506836,77.104492L223.678467,77.745911L221.931763,78.700073L220.332764,79.894348L218.871948,81.278564L217.543091,82.854492L216.373413,84.603027L215.383667,86.456177L214.598145,88.431091L214.090698,90.524353L214.096924,92.723572L214.421021,93.898926L214.411987,93.946533L214.412476,93.994995L214.422485,94.042419L214.441406,94.086975L214.468628,94.127014L214.503174,94.160950L214.543823,94.187500L214.588745,94.205688L214.636353,94.214600L214.684692,94.214233L214.732178,94.204285L214.776733,94.185303L214.816895,94.158081L214.850708,94.123474L214.877197,94.082947L214.895264,94.038086L215.784668,93.287720L217.081543,91.752014L218.120483,90.203308L219.118530,88.720337L220.144775,87.299500L221.185547,85.984680L222.252563,84.815430L223.359131,83.786926L224.477173,82.917358L225.598999,82.220215L226.728271,81.703552L227.878540,81.337585L229.063354,81.133179L230.354858,81.078125L231.820190,81.133789L233.728394,81.075867z" fill="#000000" stroke="none" fill-opacity="1" />
				<path d="M114.607422,101.074585L114.627197,101.002258L114.632446,100.927612L114.623169,100.853271L114.599487,100.782288L114.562256,100.717285L114.513184,100.660706L114.454102,100.614807L114.386963,100.581360L114.314941,100.561584L114.240234,100.556274L114.165894,100.565735L114.094727,100.589417L114.029785,100.626526L113.973267,100.675598L113.927368,100.734802L113.893921,100.801758L112.453247,103.307434L109.158447,107.532471L106.317627,110.298584L103.274170,112.596497L100.415405,114.043701L97.821411,114.788757L95.461914,114.998047L93.299683,114.782837L91.285400,114.175476L89.416016,113.214111L87.659790,111.873657L85.979248,110.077332L84.413696,107.758545L83.069458,104.862122L82.041138,101.380310L81.490356,97.401184L81.530762,93.085876L82.235352,88.729065L83.510742,84.710510L85.202881,81.233215L87.156006,78.393127L89.238037,76.133118L91.390259,74.429443L93.581665,73.217102L95.769775,72.468262L98.048828,72.137451L100.347412,72.216919L102.754150,72.780762L105.246704,73.879944L107.882812,75.657104L110.556274,77.996033L113.603882,81.839539L113.645630,81.901917L113.698730,81.954834L113.761230,81.996521L113.830444,82.025146L113.904053,82.039673L113.979126,82.039551L114.052612,82.024902L114.121826,81.996216L114.184204,81.954407L114.237183,81.901428L114.278809,81.838928L114.307373,81.769592L114.322021,81.696045L114.322021,81.621033L114.307251,81.547424L114.278442,81.478210L112.923584,76.574280L110.959229,72.882202L108.283081,69.873901L105.208862,67.677856L101.847534,66.257141L98.339844,65.623657L94.776367,65.737488L91.295410,66.555725L87.859863,68.115723L84.605591,70.377625L81.577759,73.354797L78.847656,77.055786L76.529663,81.536560L74.815796,86.640869L73.859131,92.159546L73.766235,97.680176L74.465698,102.839600L75.850098,107.477600L77.762939,111.454407L80.082642,114.757080L82.698730,117.395874L85.573364,119.404602L88.692627,120.804749L92.026978,121.569397L95.505249,121.649170L99.089722,120.980957L102.693848,119.481934L106.245850,117.042175L109.535278,113.596497L112.013794,109.607239L113.958008,104.058655z" fill="#000000" stroke="none" fill-opacity="1" />
			</g>
		</g>
	</g>
</svg>
